<?xml version="1.0" encoding="UTF-8"?>
<svg version="1.1" xmlns="http://www.w3.org/2000/svg" width="1600" height="715">
<path d="M0 0 C528 0 1056 0 1600 0 C1600 235.95 1600 471.9 1600 715 C1072 715 544 715 0 715 C0 479.05 0 243.1 0 0 Z " fill="#171E28" transform="translate(0,0)"/>
<path d="M0 0 C24.03631828 -0.09375321 48.07260886 -0.16413029 72.10907364 -0.20724869 C83.27150869 -0.22780813 94.43382963 -0.25580111 105.59619141 -0.30175781 C115.33381761 -0.34182935 125.07136111 -0.3674808 134.80906749 -0.37635398 C139.95740302 -0.38153457 145.10550211 -0.39357023 150.25376129 -0.42292023 C155.11618624 -0.45041168 159.97828115 -0.45837815 164.84077644 -0.45243073 C166.60943214 -0.45351609 168.37810084 -0.46126649 170.14668846 -0.4768219 C188.48257675 -0.62995177 205.87219316 1.83332144 222 11 C222.59506348 11.33660645 223.19012695 11.67321289 223.80322266 12.02001953 C247.9139668 25.9583321 262.73990995 47.01881269 271.0390625 73.2890625 C277.14677729 96.74953708 273.00192523 123.76139922 260.9296875 144.69140625 C256.40656381 152.16000568 251.1019876 158.75299259 245 165 C244.34644531 165.680625 243.69289063 166.36125 243.01953125 167.0625 C237.2846526 172.9318854 237.2846526 172.9318854 234 175 C233.34 175 232.68 175 232 175 C235.11713878 178.2210434 238.36345362 181.18682814 241.75 184.125 C250.10122772 191.61873559 256.63679607 200.17008078 262 210 C262.42925781 210.75410156 262.85851562 211.50820313 263.30078125 212.28515625 C266.06298112 217.40762597 268.00062582 222.6553345 269.75 228.1875 C269.96084229 228.85281738 270.17168457 229.51813477 270.38891602 230.20361328 C275.62241179 247.4683558 274.67502536 267.94883184 269 285 C268.79101074 285.6408252 268.58202148 286.28165039 268.36669922 286.94189453 C263.52674066 301.32400361 255.54903908 313.13723485 245 324 C244.17628906 324.91652344 244.17628906 324.91652344 243.3359375 325.8515625 C230.39541167 339.81203125 210.79983276 348.79297643 192.18534851 351.66621399 C191.36735391 351.79267691 190.54935932 351.91913983 189.706577 352.04943496 C180.48337008 353.36453339 171.33285686 353.3994821 162.03442383 353.34057617 C160.12031569 353.33972721 158.20620658 353.34021028 156.292099 353.34190369 C151.16106787 353.34275456 146.03025275 353.32527816 140.89927125 353.30418181 C135.51283034 353.2852614 130.12638295 353.28365259 124.73991394 353.28010559 C114.5690338 353.27082982 104.39825192 353.24627736 94.22741479 353.21605712 C82.63591477 353.18237295 71.04440975 353.16599206 59.45287287 353.15097082 C35.63519439 353.11972317 11.81760273 353.06705083 -12 353 C-10.6035149 348.67385953 -8.9819481 344.8324166 -6.8125 340.83203125 C-6.19632812 339.69185547 -5.58015625 338.55167969 -4.9453125 337.37695312 C-4.62594727 336.79179932 -4.30658203 336.20664551 -3.97753906 335.60375977 C-2.99832567 333.80943194 -2.02592666 332.01154518 -1.0546875 330.21289062 C3.68422302 321.47366546 3.68422302 321.47366546 6 318 C8.98967457 317.62361908 8.98967457 317.62361908 12.91059875 317.62145996 C13.63000757 317.61692983 14.34941638 317.6123997 15.09062546 317.6077323 C17.51413003 317.59605615 19.93708814 317.60577635 22.3605957 317.61523438 C24.0934739 317.6111313 25.82634933 317.60567199 27.55921936 317.59895325 C31.29918568 317.58720039 35.03900432 317.58475406 38.77898598 317.58930969 C44.70146353 317.59610879 50.62374647 317.58026606 56.54618835 317.56091309 C69.13494832 317.52299046 81.7236917 317.51026646 94.3125 317.5 C107.86515826 317.48892316 121.41772698 317.47341949 134.97032422 317.42928743 C140.84756083 317.41100219 146.72457577 317.40701425 152.60183394 317.41422272 C156.27684546 317.41575421 159.95174819 317.40489902 163.62672997 317.39084435 C165.31928978 317.38687089 167.01187078 317.38791624 168.704422 317.39461708 C186.840807 317.46084597 204.08137496 314.60429216 217.546875 301.28515625 C219 300 219 300 221 300 C221.27199219 299.41476562 221.54398438 298.82953125 221.82421875 298.2265625 C222.97966487 296.03850838 224.26246014 294.29721302 225.8125 292.375 C236.7655377 277.89561845 238.44519584 261.6525218 237 244 C234.50236497 229.20745917 225.61964763 215.66983859 213.83984375 206.5546875 C199.44578281 196.53057826 185.72380584 194.24859634 168.59765625 194.29296875 C166.78061794 194.27981955 164.96359415 194.2645056 163.14659119 194.24714661 C158.41696299 194.20766012 153.68772028 194.1971299 148.95794678 194.19311523 C144.11052014 194.18371446 139.26331362 194.14625839 134.41601562 194.11132812 C124.94402039 194.0471235 115.47219388 194.01357962 106 194 C105.5968457 193.24904053 105.19369141 192.49808105 104.77832031 191.72436523 C103.26571434 188.90788596 101.75227151 186.09185841 100.23828125 183.27612305 C99.58625873 182.06308412 98.93455899 180.84987163 98.28320312 179.63647461 C94.01749449 171.65365367 94.01749449 171.65365367 89.546875 163.78515625 C88 161 88 161 88 159 C89.75407921 158.99453156 89.75407921 158.99453156 91.54359436 158.98895264 C102.62034206 158.95184353 113.69681583 158.8938986 124.77335453 158.81609726 C130.46650832 158.77676362 136.15951069 158.74450628 141.8527832 158.72900391 C147.35784615 158.71374393 152.86249242 158.67913449 158.3673687 158.63169098 C160.45662225 158.6169729 162.54593533 158.60896455 164.63524055 158.60811615 C186.0760265 158.59067029 204.52741046 155.3310535 220.37109375 139.73046875 C233.23877744 126.365668 237.53279228 111.42516151 237.41943359 93.14990234 C236.99389645 77.08656135 230.38430089 63.85439823 219.375 52.25 C200.67256867 34.53190716 177.36270723 34.54549865 153.1640625 34.48828125 C150.4712004 34.47303206 147.77837485 34.45340303 145.08554077 34.43388367 C138.75719949 34.3904891 132.42888341 34.36177721 126.10043943 34.33856028 C118.88615065 34.3113621 111.6719923 34.26746072 104.45779729 34.22227156 C89.63860895 34.12981352 74.81936449 34.05795658 60 34 C61.56428391 37.00049597 63.13331341 39.99848659 64.703125 42.99609375 C65.14027832 43.83474976 65.57743164 44.67340576 66.02783203 45.53747559 C68.79016765 50.80557128 71.67791164 55.96898069 74.75 61.0625 C79.09047407 68.32567407 83.1342546 75.72654121 87.125 83.1875 C92.74026319 93.68248072 98.46001475 104.0752122 104.5625 114.296875 C105.00819336 115.04638428 105.45388672 115.79589355 105.91308594 116.56811523 C106.77081676 118.00805669 107.63305947 119.44532562 108.50097656 120.87915039 C110.61541944 124.42397695 112.48813502 127.97268212 114.14355469 131.7565918 C114.66934113 132.95399239 114.66934113 132.95399239 115.20574951 134.17558289 C115.46785217 134.77764053 115.72995483 135.37969818 116 136 C110.27115388 136.24782044 104.54544249 136.42891691 98.8125 136.54931641 C96.86435603 136.59950961 94.91658707 136.66768562 92.96972656 136.75439453 C76.77248568 137.45754339 76.77248568 137.45754339 72.45532227 133.9074707 C70.87935617 131.29106097 69.930481 128.90059813 69 126 C68.09358089 124.29560365 67.15901574 122.60564857 66.1875 120.9375 C64.46126625 117.7475268 62.75926247 114.54592177 61.078125 111.33203125 C56.79615961 103.15846198 52.37941706 95.08078268 47.8125 87.0625 C43.08960191 78.7695099 38.50029921 70.41580318 34 62 C28.06564141 50.9112786 21.93211985 39.94916851 15.71337891 29.01806641 C12.52179222 23.39618059 9.35302556 17.76158178 6.1875 12.125 C5.57003906 11.02986084 4.95257813 9.93472168 4.31640625 8.80639648 C3.75179688 7.80036377 3.1871875 6.79433105 2.60546875 5.7578125 C1.84979614 4.41420654 1.84979614 4.41420654 1.07885742 3.04345703 C0 1 0 1 0 0 Z " fill="#FCFCFD" transform="translate(360,178)"/>
<path d="M0 0 C4.16805811 4.69654395 6.92493569 10.06423344 9.875 15.5625 C10.40947754 16.55032471 10.94395508 17.53814941 11.49462891 18.5559082 C14.67140093 24.45112407 17.75316904 30.3768598 20.69921875 36.390625 C23.40341364 41.8152562 26.28736445 47.16559699 29.42236328 52.35400391 C30.88763147 54.81153665 32.2757806 57.29212785 33.63671875 59.80859375 C34.37353882 61.16694336 34.37353882 61.16694336 35.12524414 62.55273438 C35.64078857 63.50470703 36.15633301 64.45667969 36.6875 65.4375 C40.82489004 73.05646709 45.02210006 80.62941945 49.37890625 88.125 C54 96.32048193 54 96.32048193 54 100 C54.66 100 55.32 100 56 100 C56.96189997 101.72718516 57.91936508 103.45684058 58.875 105.1875 C59.40867187 106.15042969 59.94234375 107.11335938 60.4921875 108.10546875 C62 111 62 111 63.03125 113.625 C63.99796621 115.99501394 65.12171196 117.75072786 66.625 119.8125 C69.47737361 123.97654906 71.72875314 128.28871433 73.9375 132.8125 C76.76196204 138.59477923 79.78810158 144.15561996 83.08984375 149.68359375 C85.49194247 153.85410871 87.71461358 158.10697404 89.9375 162.375 C93.54585973 169.29773022 97.28837971 176.1113894 101.19921875 182.8671875 C102.86478143 185.76476076 104.47481426 188.68422061 106.0625 191.625 C108.74127414 196.5862365 111.58947269 201.43556021 114.484375 206.2734375 C115.89482973 208.81080195 116.94143483 211.30277594 118 214 C121.0055943 219.89955224 124.29833096 225.51131833 128 231 C129.01622658 232.99180409 130.01712992 234.99152635 131 237 C131.53625 237.86625 132.0725 238.7325 132.625 239.625 C134 242 134 242 134.5 244.1875 C134.89906646 246.40546281 134.89906646 246.40546281 138 248 C139.44358366 251.00746596 140.64467941 253.98955706 141.75 257.1328125 C141.9975 257.83148438 142.245 258.53015625 142.5 259.25 C142.7165625 259.89453125 142.933125 260.5390625 143.15625 261.203125 C144.13168082 263.28043137 145.375472 264.39167677 147 266 C147.89821169 267.49524261 148.75104858 269.01845294 149.5625 270.5625 C150.91677482 273.13182512 151.9356679 274.9356679 154 277 C154.67300239 278.52132472 155.29142113 280.06718203 155.875 281.625 C157.63954003 286.32549738 159.71031455 290.42062909 162 295 C148.8 295 135.6 295 122 295 C120.47375 292.07125 118.9475 289.1425 117.375 286.125 C114.22980567 280.11685287 111.00406016 274.22247415 107.4296875 268.45703125 C105.27377421 264.75192345 103.42486369 260.89755535 101.54541016 257.04760742 C99.59173887 253.07965626 97.42028958 249.38162621 95 245.6875 C93.55897126 243.255764 92.74629884 240.71381398 92 238 C91.34 238 90.68 238 90 238 C89.566875 236.824375 89.566875 236.824375 89.125 235.625 C88.15087746 232.90328368 88.15087746 232.90328368 86 231 C85.29588261 229.08882423 84.59386075 227.1768357 83.90527344 225.26000977 C82.9901886 222.97550591 81.9184668 220.9159438 80.703125 218.77734375 C80.0392981 217.6013562 80.0392981 217.6013562 79.36206055 216.40161133 C78.91258057 215.60907959 78.46310059 214.81654785 78 214 C77.17694566 212.52423955 76.35530143 211.04769168 75.53515625 209.5703125 C75.13071289 208.84336182 74.72626953 208.11641113 74.30957031 207.36743164 C69.70386478 199.08563733 65.13289155 190.78653056 60.62109375 182.453125 C57.56219665 176.81875322 54.45260822 171.21440534 51.3125 165.625 C50.7414856 164.60756714 50.7414856 164.60756714 50.15893555 163.56958008 C49.61039917 162.59541138 49.61039917 162.59541138 49.05078125 161.6015625 C48.70225098 160.9818457 48.3537207 160.36212891 47.99462891 159.72363281 C47.11297277 158.19577511 46.17548701 156.70043648 45.23046875 155.2109375 C44 153 44 153 44 150 C43.34 150 42.68 150 42 150 C41.62875 149.071875 41.2575 148.14375 40.875 147.1875 C36.84882984 137.80325527 31.33759839 128.99898603 26.3125 120.125 C25.74466797 119.11953125 25.17683594 118.1140625 24.59179688 117.078125 C21.56666546 111.71838572 21.56666546 111.71838572 18.44042969 106.41748047 C17.21913743 104.36777947 16.09525477 102.31939487 15.02734375 100.1875 C14.68509766 99.50429688 14.34285156 98.82109375 13.99023438 98.1171875 C13.64283203 97.41851562 13.29542969 96.71984375 12.9375 96 C12.58623047 95.30132812 12.23496094 94.60265625 11.87304688 93.8828125 C10.42690716 90.98506561 9.0617536 88.16771458 7.94140625 85.125 C7.0789048 82.66544813 7.0789048 82.66544813 4 81 C4 80.01 4 79.02 4 78 C3.34 78 2.68 78 2 78 C1.87625 77.360625 1.7525 76.72125 1.625 76.0625 C1.41875 75.381875 1.2125 74.70125 1 74 C0.34 73.67 -0.32 73.34 -1 73 C-1.26683594 73.72058594 -1.53367187 74.44117188 -1.80859375 75.18359375 C-3.3856095 78.91155557 -5.50652608 82.18028222 -7.66015625 85.59765625 C-8.88028746 87.78535506 -9.54264626 89.55513373 -10 92 C-10.66 92 -11.32 92 -12 92 C-12.11843262 92.733396 -12.23686523 93.46679199 -12.35888672 94.22241211 C-12.99862328 96.99403545 -13.87576805 98.96905821 -15.2578125 101.44140625 C-15.71551025 102.26697021 -16.17320801 103.09253418 -16.64477539 103.94311523 C-17.13324951 104.80751221 -17.62172363 105.67190918 -18.125 106.5625 C-18.62056396 107.45203369 -19.11612793 108.34156738 -19.62670898 109.25805664 C-22.88510468 115.08694684 -26.21444826 120.86946301 -29.66015625 126.58984375 C-31.05491143 128.97515701 -31.05491143 128.97515701 -32.015625 131.5703125 C-33.00074002 134.00182655 -34.15528268 135.81758288 -35.6875 137.9375 C-38.52634748 142.10386609 -40.77181454 146.40696597 -42.97583008 150.93579102 C-45.78738474 156.66770084 -48.81208255 162.27396254 -51.875 167.875 C-52.39006104 168.81698242 -52.90512207 169.75896484 -53.43579102 170.72949219 C-56.94542524 177.12509549 -60.49797138 183.4960924 -64.14599609 189.81396484 C-66.41351791 193.78458441 -68.2690259 197.77771738 -70 202 C-70.66 202 -71.32 202 -72 202 C-72.25523437 202.85722656 -72.51046875 203.71445312 -72.7734375 204.59765625 C-74.06284206 208.17431667 -75.6910277 211.16669825 -77.625 214.4375 C-80.43099199 219.24413114 -83.14544622 224.07968188 -85.75 229 C-93.83605025 244.27006296 -102.16300336 259.40280818 -110.72338867 274.41210938 C-113.27165735 278.88960507 -115.76403703 283.35786235 -118 288 C-118.66 288 -119.32 288 -120 288 C-120.04125 288.78375 -120.0825 289.5675 -120.125 290.375 C-121.17916527 294.74225612 -123.14593283 297.83696427 -125.515625 301.6171875 C-127.20694179 304.33219604 -128.62032917 307.11523371 -130 310 C-131.98 313.96 -131.98 313.96 -134 318 C-100.34 318 -66.68 318 -32 318 C-31.67 316.68 -31.34 315.36 -31 314 C-30.2514569 312.5190694 -29.45639903 311.06105288 -28.625 309.625 C-27.25332008 307.24349436 -25.93814142 304.87400584 -24.7265625 302.40625 C-22.22589195 297.47280041 -19.47997613 292.68445922 -16.75 287.875 C-15.87819092 286.33501343 -15.87819092 286.33501343 -14.98876953 284.76391602 C-11.50044718 278.61181046 -7.98245977 272.48087148 -4.3671875 266.40234375 C-2.80096858 263.65027337 -1.40800434 260.83646396 0 258 C1.54845598 255.01343362 3.11799889 252.03805014 4.6875 249.0625 C5.12304199 248.23580811 5.55858398 247.40911621 6.00732422 246.55737305 C9.97951271 239.02468555 13.98206813 231.50836989 18 224 C18.66 224 19.32 224 20 224 C20 222.68 20 221.36 20 220 C20.66 220 21.32 220 22 220 C22.0825 219.278125 22.165 218.55625 22.25 217.8125 C23.15732732 214.41002254 24.79377658 212.72533481 27 210 C28.04718798 207.68745988 29.04346365 205.3514852 30 203 C31.29624175 200.31324436 32.64716749 197.65901563 34 195 C34.66 195 35.32 195 36 195 C36.33 193.35 36.66 191.7 37 190 C37.99 190 38.98 190 40 190 C42.01372283 193.5757862 44.00853604 197.16177664 46 200.75 C46.57234375 201.76578125 47.1446875 202.7815625 47.734375 203.828125 C48.27578125 204.8078125 48.8171875 205.7875 49.375 206.796875 C49.87773437 207.69760742 50.38046875 208.59833984 50.8984375 209.52636719 C52 212 52 212 52 216 C52.66 216 53.32 216 54 216 C58.08579671 221.01969311 58.08579671 221.01969311 57.7890625 224.41015625 C56.93309017 227.21960999 55.77815273 229.28549501 54.1875 231.75 C51.77428435 235.63412805 49.79415565 239.47944933 48.01171875 243.68359375 C46.18206706 247.87271906 44.07431461 251.92788238 42 256 C41.34 256 40.68 256 40 256 C39.731875 256.86625 39.46375 257.7325 39.1875 258.625 C37.6535992 262.98450754 35.81620419 266.81791117 33.1875 270.625 C31.27298103 273.41760662 29.79985733 276.33454579 28.3125 279.375 C23.42614916 289.32132836 17.99824836 299.01897856 11.984375 308.328125 C10.93591525 310.10884236 10.15017112 311.89830193 9.375 313.8125 C8 317 8 317 6.5078125 318.453125 C4.78161971 320.22403781 4.25385558 321.59965025 3.5 323.9375 C2.38601054 327.12861564 1.07459343 329.32031682 -1 332 C-2.52347923 335.47460243 -3.98640367 338.96695877 -5.43013763 342.4754591 C-7.36467718 346.38401094 -8.90627436 348.90327083 -12 352 C-17.80750074 353.88934198 -23.38028236 353.65103199 -29.43164062 353.47583008 C-31.20619434 353.47215981 -32.98076779 353.47422796 -34.75531006 353.48158264 C-39.55807863 353.48530445 -44.35660395 353.40903446 -49.15838814 353.31812119 C-54.18166545 353.23670291 -59.20504652 353.22920632 -64.22888184 353.21379089 C-73.73519683 353.17342755 -83.23956206 353.06681181 -92.74501944 352.93624753 C-103.56939028 352.79080335 -114.39385561 352.71943065 -125.21896076 352.65420687 C-147.48039435 352.51842063 -169.74007423 352.28984929 -192 352 C-191.3126633 348.21434319 -190.3590187 345.51497193 -188.3828125 342.19921875 C-187.59583984 340.85633789 -187.59583984 340.85633789 -186.79296875 339.48632812 C-186.24253906 338.56271484 -185.69210938 337.63910156 -185.125 336.6875 C-180.69916252 329.35512557 -180.69916252 329.35512557 -177.3046875 321.51953125 C-176.06892586 318.18593473 -175.43380601 317.2952742 -173 315 C-172.05296448 313.44675001 -171.16289411 311.85819516 -170.3125 310.25 C-169.54292969 308.80367188 -169.54292969 308.80367188 -168.7578125 307.328125 C-168.17773438 306.22984375 -167.59765625 305.1315625 -167 304 C-166.29018906 302.68168448 -165.57920004 301.36400276 -164.8671875 300.046875 C-164.14042278 298.6980256 -163.41385846 297.34906821 -162.6875 296 C-162.33792236 295.35321289 -161.98834473 294.70642578 -161.62817383 294.04003906 C-160.20520252 291.38120963 -158.95582185 288.86746554 -158 286 C-157.34 286 -156.68 286 -156 286 C-155.89429688 285.4534375 -155.78859375 284.906875 -155.6796875 284.34375 C-154.84612919 281.46941099 -153.56861056 279.12474648 -152.125 276.5 C-151.50238281 275.35789062 -150.87976563 274.21578125 -150.23828125 273.0390625 C-148.5864683 270.04472512 -146.91056952 267.06448084 -145.23046875 264.0859375 C-138.0822472 251.50485181 -138.0822472 251.50485181 -133 238 C-132.01 238 -131.02 238 -130 238 C-129.64035156 236.7625 -129.64035156 236.7625 -129.2734375 235.5 C-127.77672073 231.38632445 -125.79375558 227.79024717 -123.625 224 C-122.73087587 222.41456689 -121.83769139 220.82860359 -120.9453125 219.2421875 C-120.47125977 218.40139648 -119.99720703 217.56060547 -119.50878906 216.69433594 C-116.80097659 211.85883134 -114.15159295 206.99149086 -111.5 202.125 C-110.9838916 201.18011719 -110.4677832 200.23523438 -109.93603516 199.26171875 C-109.45183105 198.37355469 -108.96762695 197.48539063 -108.46875 196.5703125 C-108.04013672 195.78414551 -107.61152344 194.99797852 -107.16992188 194.18798828 C-106.07601981 192.14217228 -105.02628564 190.08042083 -104 188 C-103.34 188 -102.68 188 -102 188 C-101.89276611 187.28303955 -101.78553223 186.5660791 -101.67504883 185.82739258 C-100.9357421 182.73086051 -99.79382569 180.51222199 -98.19921875 177.76171875 C-97.63396484 176.77623047 -97.06871094 175.79074219 -96.48632812 174.77539062 C-95.89271484 173.75638672 -95.29910156 172.73738281 -94.6875 171.6875 C-89.62375775 162.93075689 -89.62375775 162.93075689 -84.97680664 153.95043945 C-83.07226 150.14753441 -80.95739658 146.457531 -78.875 142.75 C-77.99661211 141.18273065 -77.11898078 139.61503699 -76.2421875 138.046875 C-75.8591748 137.36463867 -75.47616211 136.68240234 -75.08154297 135.97949219 C-74.00472892 134.0086551 -72.99165082 132.01483625 -72 130 C-71.34 130 -70.68 130 -70 130 C-69.91492188 129.3296875 -69.82984375 128.659375 -69.7421875 127.96875 C-68.78689793 124.14759171 -67.01530454 120.92151897 -65.125 117.5 C-64.77308594 116.84902344 -64.42117188 116.19804687 -64.05859375 115.52734375 C-62.58971275 112.82438428 -61.09590713 110.15702929 -59.4921875 107.53125 C-58.28180165 105.47803003 -57.21443526 103.44551835 -56.16796875 101.30859375 C-53.7626372 96.4352027 -51.03852777 91.7617357 -48.3125 87.0625 C-43.32703529 78.40770886 -38.57350954 69.65805467 -33.94775391 60.80712891 C-30.26403315 53.78319768 -26.41617392 46.90975739 -22.19921875 40.19140625 C-21.0562207 38.10273554 -20.45038476 36.32610482 -20 34 C-19.34 34 -18.68 34 -18 34 C-17.62875 32.75283203 -17.62875 32.75283203 -17.25 31.48046875 C-15.83032815 27.52756994 -14.00819788 23.99055808 -12 20.3125 C-11.46632813 19.31766602 -11.46632813 19.31766602 -10.921875 18.30273438 C-9.38103452 15.4481549 -7.80058312 12.70087468 -6 10 C-5.34 10 -4.68 10 -4 10 C-4 8.68 -4 7.36 -4 6 C-3.34 6 -2.68 6 -2 6 C-1.855625 5.195625 -1.71125 4.39125 -1.5625 3.5625 C-1 1 -1 1 0 0 Z " fill="#F90103" transform="translate(334,178)"/>
<path d="M0 0 C5.16478892 4.1633063 10.22576516 8.4988747 14 14 C12.3382581 18.9852257 7.760405 21.22379984 3.625 24.25 C2.7484375 24.91257813 1.871875 25.57515625 0.96875 26.2578125 C0.12570312 26.87914062 -0.71734375 27.50046875 -1.5859375 28.140625 C-2.3598584 28.71329102 -3.1337793 29.28595703 -3.93115234 29.87597656 C-4.61387207 30.2469043 -5.2965918 30.61783203 -6 31 C-9 30 -9 30 -11.0625 27.3125 C-16.90658379 20.05536908 -26.01191848 16.46117719 -35 15 C-42.24876831 14.41452256 -49.04177554 14.88657836 -56 17 C-56.77730469 17.21011719 -57.55460938 17.42023438 -58.35546875 17.63671875 C-68.48181219 20.93703736 -76.6962407 28.74594278 -81.625 38.0625 C-88.03475794 52.7672388 -87.61237948 68.7364969 -82.00390625 83.6484375 C-77.22431119 94.39839179 -68.67964831 101.41226375 -58 106 C-46.86867531 109.91682646 -32.42330898 109.65355897 -21.484375 105.265625 C-15.18093077 102.05443643 -10.3138709 98.38226989 -7 92 C-6.01 88.7 -5.02 85.4 -4 82 C-14.56 82 -25.12 82 -36 82 C-36 73.42 -36 64.84 -36 56 C-16.2 56 3.6 56 24 56 C24 101.26936027 24 101.26936027 7.6796875 118.44140625 C-8.33981656 133.68253315 -28.07827448 135.50751762 -49.21875 135.27734375 C-65.81009821 134.817236 -80.49216317 128.98249087 -93 118 C-93.67675781 117.41734375 -94.35351562 116.8346875 -95.05078125 116.234375 C-106.96579001 105.22166787 -115.22758647 88.07314898 -116.18896484 71.80175781 C-116.26812019 68.19892908 -116.27285569 64.6035809 -116.25 61 C-116.25773438 59.78054688 -116.26546875 58.56109375 -116.2734375 57.3046875 C-116.23289854 38.53515001 -109.46189795 22.21831723 -96.25 8.75 C-88.66148863 1.28277164 -79.98192426 -4.27277508 -70 -8 C-69.113125 -8.37253906 -68.22625 -8.74507812 -67.3125 -9.12890625 C-45.3586708 -17.00484248 -18.88537091 -13.42840821 0 0 Z " fill="#FCFCFC" transform="translate(963,197)"/>
<path d="M0 0 C4.94482875 4.23842464 9.76086893 8.4868789 14.5 12.9375 C15.18707031 13.58138672 15.87414062 14.22527344 16.58203125 14.88867188 C22.14044543 20.12699457 27.54286169 25.50806124 32.91601562 30.93530273 C36.41668491 34.45880652 39.98096298 37.7997583 43.78125 41 C47.80909056 44.63072952 51.57538415 48.53721327 55.37109375 52.40820312 C58.42077166 55.49978992 61.5025427 58.47834242 64.80078125 61.3046875 C70.02593512 65.81092309 74.83345802 70.72636258 79.6875 75.625 C80.61111328 76.553125 81.53472656 77.48125 82.48632812 78.4375 C84.20258788 80.16240902 85.91780997 81.88835167 87.6315918 83.61572266 C90.08218595 86.08273662 92.54008051 88.54228672 95 91 C96.32 92.32 97.64 93.64 99 95 C99.33 66.95 99.66 38.9 100 10 C108.91 10 117.82 10 127 10 C127 59.5 127 109 127 160 C119.22535211 153.3360161 119.22535211 153.3360161 116.5625 150.5625 C114.25130911 148.21049338 111.88833119 146.00896044 109.375 143.875 C104.99159052 140.10560897 100.95702578 136.01471313 96.91943359 131.88232422 C94.11458194 129.03227508 91.25502559 126.32214292 88.21875 123.71875 C82.29940853 118.60375924 76.90824642 112.95231076 71.421875 107.3828125 C67.06596894 102.98682142 62.65823064 98.76587999 57.9609375 94.73828125 C53.54524912 90.82397581 49.48817714 86.52439166 45.35546875 82.31640625 C41.29996135 78.21641431 37.17311157 74.31913397 32.74414062 70.62304688 C31 69 31 69 28 65 C27.67 93.38 27.34 121.76 27 151 C18.09 151 9.18 151 0 151 C0 101.17 0 51.34 0 0 Z " fill="#FDFDFD" transform="translate(1003,178)"/>
<path d="M0 0 C9.24 0 18.48 0 28 0 C28.01458252 2.69381836 28.02916504 5.38763672 28.04418945 8.16308594 C28.09470378 17.09984846 28.16132796 26.03643983 28.23571491 34.97303391 C28.28029277 40.38711791 28.31957623 45.80112884 28.34643555 51.21533203 C28.37259455 56.44801135 28.41308483 61.68040756 28.46318626 66.91291046 C28.4797702 68.90137438 28.4913369 70.88988717 28.49761391 72.87841034 C28.24404435 93.95916857 28.24404435 93.95916857 38 112 C47.10337105 118.2068439 58.59477511 118.2418133 69.16796875 116.46875 C74.91030888 114.87027711 79.28305588 112.97407985 82.37109375 107.625 C85.97414564 100.65019424 85.97414564 100.65019424 87.15148926 93.00143433 C87.15983292 92.1909967 87.16817657 91.38055908 87.17677307 90.54556274 C87.18095749 89.66024872 87.18514191 88.77493469 87.18945312 87.86279297 C87.19774643 86.92761841 87.20603973 85.99244385 87.21458435 85.02893066 C87.23198716 82.99749318 87.24715335 80.96603559 87.26036072 78.9345665 C87.28136426 75.72472602 87.30838713 72.51498704 87.33703613 69.3052063 C87.40691664 61.33543932 87.46636225 53.36560053 87.52606201 45.39575195 C87.57689929 38.65963534 87.63168607 31.92357404 87.69187927 25.18753433 C87.71854924 22.01606109 87.73930347 18.84458295 87.7598877 15.67306519 C87.77648205 13.74151358 87.79335312 11.80996433 87.81054688 9.87841797 C87.81473129 8.98905548 87.81891571 8.09969299 87.82322693 7.18338013 C87.88615217 1.11384783 87.88615217 1.11384783 89 0 C91.07262076 -0.08767112 93.14820294 -0.10695873 95.22265625 -0.09765625 C96.48271484 -0.09443359 97.74277344 -0.09121094 99.04101562 -0.08789062 C100.38151109 -0.07953403 101.72200588 -0.07106907 103.0625 -0.0625 C104.40689942 -0.0574866 105.7513006 -0.05292342 107.09570312 -0.04882812 C110.39717941 -0.03699488 113.69856803 -0.02050971 117 0 C117.11645023 12.87506444 117.20499576 25.75000118 117.25906086 38.62548733 C117.28502475 44.60574032 117.32017891 50.5856299 117.37719727 56.56567383 C117.43199118 62.34938634 117.46151953 68.1327519 117.47438622 73.91670418 C117.48354174 76.11045853 117.5014173 78.30419641 117.52865028 80.49780083 C117.72335135 96.84857721 117.24057628 113.94814603 106 127 C105.41476562 127.69351563 104.82953125 128.38703125 104.2265625 129.1015625 C94.75567823 139.42289352 81.69727386 144.26663718 67.91601562 145.21142578 C64.50438052 145.35066601 61.10185536 145.41478435 57.6875 145.4375 C56.06026001 145.45272705 56.06026001 145.45272705 54.40014648 145.46826172 C47.17164167 145.38997267 40.85899913 144.25259681 34 142 C32.34291016 141.47019531 32.34291016 141.47019531 30.65234375 140.9296875 C19.90613267 136.75490046 11.16829556 129.42888211 6 119 C1.47405063 107.70972412 -0.16430858 97.34802042 -0.11352539 85.25756836 C-0.11367142 84.32966492 -0.11381744 83.40176147 -0.1139679 82.44573975 C-0.11327701 79.41041643 -0.10552358 76.37515621 -0.09765625 73.33984375 C-0.09578914 71.22278375 -0.09436662 69.10572331 -0.09336853 66.98866272 C-0.08956644 61.44030547 -0.07975605 55.89197476 -0.06866455 50.34362793 C-0.05840062 44.67244831 -0.05386027 39.00126437 -0.04882812 33.33007812 C-0.03813155 22.2200386 -0.02055363 11.11002567 0 0 Z " fill="#FCFCFC" transform="translate(798,377)"/>
<path d="M0 0 C65.67857143 0 65.67857143 0 77.953125 11.578125 C87.74808297 23.16757909 88.0881185 36.58031012 87 51 C85.03397795 60.43283117 80.00976126 68.69487082 72.11328125 74.3515625 C58.53497646 83.19685819 44.18177572 81 28 81 C28 101.13 28 121.26 28 142 C18.76 142 9.52 142 0 142 C0 95.14 0 48.28 0 0 Z " fill="#FBFBFB" transform="translate(938,377)"/>
<path d="M0 0 C27.06 0 54.12 0 82 0 C82 8.58 82 17.16 82 26 C64.18 26 46.36 26 28 26 C28 34.91 28 43.82 28 53 C45.49 53 62.98 53 81 53 C81 61.25 81 69.5 81 78 C63.51 78 46.02 78 28 78 C28 90.21 28 102.42 28 115 C45.49 115 62.98 115 81 115 C81 123.91 81 132.82 81 142 C54.27 142 27.54 142 0 142 C0 95.14 0 48.28 0 0 Z " fill="#FCFCFC" transform="translate(1281,377)"/>
<path d="M0 0 C64.92545996 0 64.92545996 0 76.35546875 11.1171875 C84.01695653 19.88877208 86.51994294 28.92292556 86.4375 40.375 C86.45748047 41.35210937 86.47746094 42.32921875 86.49804688 43.3359375 C86.49093505 54.03212227 82.80004712 62.53327967 75.75 70.5625 C61.4942334 83.19829312 46.02551865 81 27 81 C27 100.8 27 120.6 27 141 C18.09 141 9.18 141 0 141 C0 94.47 0 47.94 0 0 Z " fill="#FDFDFD" transform="translate(1039,377)"/>
<path d="M0 0 C5.35660603 4.39721391 9.42627211 9.5155327 11.41796875 16.24609375 C11.21972656 18.22851562 11.21972656 18.22851562 10.41796875 20.24609375 C8.60791016 21.61816406 8.60791016 21.61816406 6.26953125 22.82421875 C5.4290625 23.2625 4.58859375 23.70078125 3.72265625 24.15234375 C2.83835937 24.59578125 1.9540625 25.03921875 1.04296875 25.49609375 C0.16640625 25.955 -0.71015625 26.41390625 -1.61328125 26.88671875 C-8.15206473 30.24609375 -8.15206473 30.24609375 -11.58203125 30.24609375 C-12.92604055 28.25325237 -14.25744417 26.25189704 -15.58203125 24.24609375 C-19.99508155 19.85627003 -23.67527986 18.09703189 -29.89453125 17.93359375 C-34.92101084 17.97348645 -37.74465724 18.80229656 -41.58203125 22.24609375 C-44.29060283 26.30895112 -44.21277799 29.47863136 -43.58203125 34.24609375 C-39.79492947 42.64358032 -30.81134227 46.20622776 -22.95703125 50.05859375 C-6.79794432 57.99435276 7.86139725 65.39114458 14.41796875 83.24609375 C17.71594923 93.14003518 15.80403237 104.73159382 11.96875 114.15234375 C9.66347719 118.75127591 6.96431819 122.53087053 3.41796875 126.24609375 C2.88429688 126.808125 2.350625 127.37015625 1.80078125 127.94921875 C-7.66037305 136.91241756 -20.35332499 139.60425935 -32.95703125 139.55859375 C-33.83875 139.57470703 -34.72046875 139.59082031 -35.62890625 139.60742188 C-48.27855916 139.61669581 -59.22574094 135.07185423 -68.46875 126.53125 C-73.76083529 120.80875481 -78.44787236 113.33794004 -78.70703125 105.43359375 C-78.64515625 103.85578125 -78.64515625 103.85578125 -78.58203125 102.24609375 C-75.69000445 100.9250888 -72.79280331 99.61583288 -69.89453125 98.30859375 C-68.66959961 97.74881836 -68.66959961 97.74881836 -67.41992188 97.17773438 C-63.50307427 95.4175316 -59.88423235 93.79810733 -55.58203125 93.24609375 C-55.20691406 94.0659375 -54.83179688 94.88578125 -54.4453125 95.73046875 C-53.93355469 96.808125 -53.42179687 97.88578125 -52.89453125 98.99609375 C-52.39566406 100.0634375 -51.89679688 101.13078125 -51.3828125 102.23046875 C-48.52611409 107.01435416 -44.89854765 109.65355177 -39.58203125 111.24609375 C-32.78614727 111.99442412 -26.0885653 112.13139292 -20.10546875 108.49609375 C-16.81613622 105.79715424 -15.89586152 103.01064887 -15.16796875 98.91796875 C-14.78168447 94.25394368 -15.23606926 90.90577619 -18.08203125 87.12109375 C-23.19221913 81.99034173 -29.94899106 79.33004131 -36.41064453 76.29345703 C-51.5569429 68.9876756 -66.7487678 60.43013876 -73.58203125 44.24609375 C-75.99305432 34.7874648 -75.83514152 23.08372549 -71.58203125 14.24609375 C-71.02515625 13.07046875 -70.46828125 11.89484375 -69.89453125 10.68359375 C-63.86657273 0.93049232 -54.52834249 -4.78498175 -43.70703125 -8.12890625 C-29.18523874 -11.08760826 -12.2949892 -8.35166438 0 0 Z " fill="#FBFCFC" transform="translate(1451.58203125,382.75390625)"/>
<path d="M0 0 C5.35348461 4.92318088 8.22528029 9.98108856 9.1875 17.1875 C6.10793712 18.84046119 3.02323921 20.48360171 -0.0625 22.125 C-0.93519531 22.59357422 -1.80789063 23.06214844 -2.70703125 23.54492188 C-3.55136719 23.99287109 -4.39570312 24.44082031 -5.265625 24.90234375 C-6.04067383 25.31605225 -6.81572266 25.72976074 -7.61425781 26.15600586 C-9.6831075 27.1267844 -11.5815269 27.72308429 -13.8125 28.1875 C-14.18761719 27.64480469 -14.56273437 27.10210937 -14.94921875 26.54296875 C-17.85683895 22.47815965 -20.18331084 19.37350599 -24.8125 17.1875 C-25.4725 16.8575 -26.1325 16.5275 -26.8125 16.1875 C-32.18012727 15.6524914 -36.51181437 15.52574766 -41.375 18 C-43.92551192 20.28892095 -45.59419012 21.98679565 -46.21875 25.421875 C-46.38416654 29.86055219 -46.3438823 33.26738355 -43.5625 36.875 C-36.97998591 43.42689774 -27.98231463 47.13409937 -19.75 51.1875 C-4.81142925 58.54986671 5.56727623 65.43669915 12.1875 81.1875 C15.63878284 91.77004798 12.90298509 104.47317576 8.5 114.375 C2.60007719 125.08391649 -6.40188483 131.4152893 -17.6875 135.5625 C-30.85521426 139.28685942 -47.10571122 138.8231589 -59.51171875 132.8984375 C-70.4862103 126.763221 -76.12598277 118.71845059 -80.8125 107.1875 C-81.5078125 103.75390625 -81.5078125 103.75390625 -81.8125 101.1875 C-79.6262775 100.08074381 -77.43859052 98.97705622 -75.25 97.875 C-74.33637695 97.4119043 -74.33637695 97.4119043 -73.40429688 96.93945312 C-71.54771216 96.00624917 -69.682683 95.0931187 -67.8125 94.1875 C-67.19004395 93.87893066 -66.56758789 93.57036133 -65.92626953 93.25244141 C-63.39314907 92.06400545 -61.31487203 91.18411702 -58.4921875 91.203125 C-56.02920994 92.64654441 -55.77254684 94.24944447 -54.9375 96.9375 C-52.78293381 102.85199543 -50.27330746 105.527725 -44.515625 108.2890625 C-38.13296781 110.4104659 -30.33783755 110.31842927 -24.1875 107.5 C-20.92142171 105.50176645 -19.07931305 103.90876335 -17.8125 100.1875 C-17.13289967 95.66850809 -16.77446004 91.33278258 -18.80859375 87.12890625 C-24.5245015 79.85853066 -33.65767703 76.23543111 -41.75 72.25 C-55.75009057 65.34137322 -70.10348882 57.56199986 -75.8125 42.1875 C-78.7685016 31.76766147 -77.94316586 18.71129851 -72.8125 9.1875 C-66.92813193 -1.14692142 -56.99840533 -6.65616702 -45.8125 -9.8125 C-30.08805894 -13.18202308 -12.71111894 -10.03796517 0 0 Z " fill="#FCFCFC" transform="translate(768.8125,384.8125)"/>
<path d="M0 0 C6.86908126 4.89584925 13.6895378 11.23066955 15.62109375 19.734375 C15.74613281 20.48203125 15.87117187 21.2296875 16 22 C13.79283537 23.27289905 11.58432515 24.5433605 9.375 25.8125 C8.75753906 26.16892578 8.14007812 26.52535156 7.50390625 26.89257812 C-3.14205849 33 -3.14205849 33 -7 33 C-8.63079614 31.12413887 -9.92678065 29.10982902 -11.3046875 27.04296875 C-14.24302343 23.50207085 -16.79945206 22.14173135 -21.375 21.6015625 C-23.169375 21.61316406 -23.169375 21.61316406 -25 21.625 C-26.19625 21.61726563 -27.3925 21.60953125 -28.625 21.6015625 C-32.25629704 22.03025729 -34.11062005 22.80200739 -37 25 C-39.04434593 28.0665189 -39.38988272 29.14049332 -39.5625 32.6875 C-39.65724609 33.89986328 -39.65724609 33.89986328 -39.75390625 35.13671875 C-38.28133762 40.72942758 -34.24657972 44.54323516 -29.4777832 47.63549805 C-26.64597871 49.17738463 -23.7814257 50.60408993 -20.875 52 C-18.81734077 53.03183338 -16.76133765 54.06697616 -14.70703125 55.10546875 C-13.23097412 55.84676025 -13.23097412 55.84676025 -11.72509766 56.60302734 C0.57090497 62.90635354 12.88515517 70.09897963 17.96875 83.56640625 C21.84606873 96.18564267 20.22968552 108.21820296 14.875 120.1875 C9.91194635 129.40248319 2.54067075 135.06684269 -7 139 C-7.79921875 139.35191406 -8.5984375 139.70382812 -9.421875 140.06640625 C-15.71175946 142.34410683 -22.14210494 142.21428165 -28.75 142.25 C-30.15765625 142.2809375 -30.15765625 142.2809375 -31.59375 142.3125 C-43.67580155 142.37925167 -53.82591734 138.50298672 -62.875 130.4375 C-63.57625 129.633125 -64.2775 128.82875 -65 128 C-65.680625 127.236875 -66.36125 126.47375 -67.0625 125.6875 C-71.55541936 119.45538604 -73.47492128 113.46707401 -75 106 C-71.37777789 104.32724698 -67.7517834 102.66283749 -64.125 101 C-63.09246094 100.52304687 -62.05992187 100.04609375 -60.99609375 99.5546875 C-60.00996094 99.10351562 -59.02382813 98.65234375 -58.0078125 98.1875 C-57.09660645 97.76855469 -56.18540039 97.34960938 -55.24658203 96.91796875 C-53 96 -53 96 -51 96 C-50.58041016 97.08667969 -50.58041016 97.08667969 -50.15234375 98.1953125 C-47.54232336 104.48957388 -45.02308577 109.46969022 -39 113 C-35.44649647 114.25966646 -31.86789848 114.20170454 -28.125 114.25 C-26.33449219 114.28867187 -26.33449219 114.28867187 -24.5078125 114.328125 C-19.37945262 113.84841205 -16.156052 112.21689684 -12.625 108.5 C-10.40911802 103.72733111 -9.83205226 99.16508568 -11 94 C-14.2306912 89.30780564 -17.39299818 86.82093857 -22.4375 84.0625 C-23.04513184 83.72605469 -23.65276367 83.38960938 -24.27880859 83.04296875 C-28.49931325 80.73119683 -32.79963849 78.60747359 -37.125 76.5 C-51.14054234 69.57079129 -62.87956447 61.78886354 -69 47 C-71.928337 38.21498901 -71.35744757 25.32971879 -67.26171875 17.06640625 C-61.65123933 7.87772634 -55.06358195 1.13829538 -45 -3 C-44.17628906 -3.35707031 -43.35257813 -3.71414062 -42.50390625 -4.08203125 C-29.44388036 -7.5035542 -11.80170855 -6.87633425 0 0 Z " fill="#FCFCFC" transform="translate(762,190)"/>
<path d="M0 0 C9.24 0 18.48 0 28 0 C28 37.95 28 75.9 28 115 C44.17 115 60.34 115 77 115 C77 123.91 77 132.82 77 142 C51.59 142 26.18 142 0 142 C0 95.14 0 48.28 0 0 Z " fill="#FCFCFC" transform="translate(1139,377)"/>
<path d="M0 0 C9.57 0 19.14 0 29 0 C29 46.86 29 93.72 29 142 C19.43 142 9.86 142 0 142 C0 95.14 0 48.28 0 0 Z " fill="#FAFAFA" transform="translate(1227,377)"/>
<path d="M0 0 C9.57 0 19.14 0 29 0 C29 46.86 29 93.72 29 142 C19.43 142 9.86 142 0 142 C0 95.14 0 48.28 0 0 Z " fill="#FAFAFB" transform="translate(799,187)"/>
<path d="M0 0 C20.23076923 0 20.23076923 0 27.0625 5.4375 C30.31411366 9.90005944 29.66855196 15.77121996 29 21 C27.86525674 24.68010773 27.52693815 25.67212737 24.1875 27.75 C18.65598257 29.91922252 13.58115896 30.1304367 7.6875 30.0625 C5.150625 30.041875 2.61375 30.02125 0 30 C0 20.1 0 10.2 0 0 Z " fill="#1A202A" transform="translate(967,403)"/>
<path d="M0 0 C20.49390244 0 20.49390244 0 26.24609375 4.921875 C29.16776538 8.38363292 29.1845095 11.4980518 29.25 15.875 C29.27578125 16.90367187 29.3015625 17.93234375 29.328125 18.9921875 C28.9490258 22.46726354 28.14782312 24.25636018 26 27 C18.49267567 31.47993081 8.32658156 30.21169275 0 30 C0 20.1 0 10.2 0 0 Z " fill="#1B212B" transform="translate(1067,403)"/>
<path d="M0 0 C0.33 0.66 0.66 1.32 1 2 C-0.36760976 4.67292059 -1.78511705 7.23317511 -3.3125 9.8125 C-4.14481231 11.23399165 -4.97431406 12.65713326 -5.80078125 14.08203125 C-6.17372314 14.71343018 -6.54666504 15.3448291 -6.9309082 15.99536133 C-8.14349694 18.26906904 -9.05815213 20.60323688 -10 23 C13.41735171 22.9395302 36.83459361 22.86207634 60.25182056 22.76428509 C71.12433212 22.71927903 81.99681057 22.67987553 92.86938477 22.65356445 C102.34358639 22.63062326 111.81768366 22.59726889 121.29180259 22.55129844 C126.31039884 22.52731376 131.32889141 22.50861943 136.34754372 22.50238609 C141.06795604 22.49635888 145.78810288 22.47644522 150.50841713 22.44572449 C152.24386251 22.43690619 153.97934253 22.43322947 155.71480942 22.43499184 C158.07876326 22.43663496 160.44189844 22.42002892 162.80574036 22.39872742 C163.49737253 22.40357499 164.18900469 22.40842257 164.90159541 22.41341704 C167.84621378 22.36942558 169.5872983 22.32279645 171.94964123 20.47507954 C172.29625962 19.98830329 172.64287802 19.50152704 173 19 C172.67 20.98 172.34 22.96 172 25 C111.28 25 50.56 25 -12 25 C-10.875 17.125 -10.875 17.125 -9 14 C-9.99 14 -10.98 14 -12 14 C-10.55873214 10.63704165 -8.79407345 8.37072898 -6 6 C-5.01 6 -4.02 6 -3 6 C-3 5.01 -3 4.02 -3 3 C-2.34 3 -1.68 3 -1 3 C-0.67 2.01 -0.34 1.02 0 0 Z " fill="#4E121A" transform="translate(152,507)"/>
<path d="M0 0 C0.66 0 1.32 0 2 0 C-0.12791125 7.20216114 -0.12791125 7.20216114 -3 10 C-5.54125656 10.39329501 -7.65260323 10.52383529 -10.19425964 10.48101807 C-11.30066369 10.48614462 -11.30066369 10.48614462 -12.42941934 10.49137473 C-14.9080093 10.4979783 -17.38552304 10.47593794 -19.86401367 10.45410156 C-21.63783238 10.45297361 -23.41165296 10.45360591 -25.18547058 10.45587158 C-30.00761596 10.45702172 -34.82936531 10.43346406 -39.65141845 10.40557575 C-44.68827174 10.38061189 -49.72513358 10.37822406 -54.76203918 10.37347412 C-64.30308866 10.36102958 -73.84395534 10.32818796 -83.38492423 10.28807616 C-94.24570454 10.24340444 -105.10649346 10.22138299 -115.96734273 10.20129442 C-138.31166326 10.15945663 -160.6558214 10.08907585 -183 10 C-182.625 7.5625 -182.625 7.5625 -182 5 C-181.34 4.67 -180.68 4.34 -180 4 C-180.33 5.65 -180.66 7.3 -181 9 C-122.59 8.67 -64.18 8.34 -4 8 C-3.34 6.02 -2.68 4.04 -2 2 C-1.34 1.34 -0.68 0.68 0 0 Z " fill="#D70E13" transform="translate(325,520)"/>
<path d="M0 0 C0 3 0 3 -1 8 C31.34 8 63.68 8 97 8 C97.33 6.68 97.66 5.36 98 4 C99.5625 2.25 99.5625 2.25 101 1 C100.5359375 2.1446875 100.5359375 2.1446875 100.0625 3.3125 C99.32106407 5.18789677 98.63771783 7.08684652 98 9 C64.34 9 30.68 9 -4 9 C-3.08541782 5.34167128 -1.99523834 3.12298174 0 0 Z " fill="#500D14" transform="translate(204,487)"/>
<path d="M0 0 C1.37562854 1.28965176 2.70766393 2.62689293 4 4 C4 4.66 4 5.32 4 6 C4.66 6 5.32 6 6 6 C6 7.32 6 8.64 6 10 C6.66 10 7.32 10 8 10 C8.042721 11.66611905 8.04063832 13.33382885 8 15 C5.85592947 17.14407053 0.97765091 16.188851 -1.99609375 16.203125 C-2.8999733 16.20882507 -3.80385284 16.21452515 -4.73512268 16.22039795 C-6.65095849 16.22986229 -8.56681069 16.2363876 -10.48266602 16.24023438 C-13.42167368 16.24994769 -16.35998457 16.28096047 -19.29882812 16.3125 C-21.15624583 16.31902888 -23.01366855 16.32427981 -24.87109375 16.328125 C-26.19614174 16.3466452 -26.19614174 16.3466452 -27.54795837 16.36553955 C-30.02514648 16.35644531 -30.02514648 16.35644531 -34 16 C-36 13 -36 13 -36 9 C-36.66 9 -37.32 9 -38 9 C-37.67 7.68 -37.34 6.36 -37 5 C-33 11.75 -33 11.75 -33 14 C-20.13 13.67 -7.26 13.34 6 13 C3.03 7.555 3.03 7.555 0 2 C0 1.34 0 0.68 0 0 Z " fill="#56080E" transform="translate(489,459)"/>
<path d="M0 0 C0.99 0.33 1.98 0.66 3 1 C3.33 2.98 3.66 4.96 4 7 C4.66 7 5.32 7 6 7 C6.27263672 7.83144531 6.27263672 7.83144531 6.55078125 8.6796875 C6.80214844 9.40414062 7.05351562 10.12859375 7.3125 10.875 C7.67794922 11.95394531 7.67794922 11.95394531 8.05078125 13.0546875 C8.96335547 15.33994905 8.96335547 15.33994905 12 17 C12.98515378 19.62356462 13.42238929 22.24524123 14 25 C14.66 25 15.32 25 16 25 C16.66 27.64 17.32 30.28 18 33 C18.66 33 19.32 33 20 33 C20 33.99 20 34.98 20 36 C20.66 36 21.32 36 22 36 C22 37.32 22 38.64 22 40 C22.66 40 23.32 40 24 40 C24 40.99 24 41.98 24 43 C24.66 43 25.32 43 26 43 C26.53229326 44.26607607 27.05044544 45.53810412 27.5625 46.8125 C27.85253906 47.52019531 28.14257812 48.22789062 28.44140625 48.95703125 C29 51 29 51 28 54 C27.74307373 53.51120361 27.48614746 53.02240723 27.22143555 52.51879883 C26.04493943 50.28258238 24.86623884 48.04753503 23.6875 45.8125 C23.28337891 45.04357422 22.87925781 44.27464844 22.46289062 43.48242188 C20.40623671 39.58648397 18.29499157 35.76208167 16 32 C0 4.46275108 0 4.46275108 0 0 Z " fill="#4A0E15" transform="translate(343,192)"/>
<path d="M0 0 C1.65 0 3.3 0 5 0 C5.33 1.32 5.66 2.64 6 4 C5.34 3.67 4.68 3.34 4 3 C4 2.34 4 1.68 4 1 C3.01 1 2.02 1 1 1 C0.67 2.65 0.34 4.3 0 6 C-0.66 6 -1.32 6 -2 6 C-2.0825 6.515625 -2.165 7.03125 -2.25 7.5625 C-3.10559039 10.34316875 -4.47371265 12.63885879 -5.95703125 15.12890625 C-6.98147922 16.96677358 -7.78242848 18.79775752 -8.5625 20.75 C-9.86489365 23.69454217 -10.76725062 24.86873923 -13 27 C-13.71447643 29.10332891 -13.71447643 29.10332891 -14 31 C-14.66 31 -15.32 31 -16 31 C-16 32.32 -16 33.64 -16 35 C-16.66 35 -17.32 35 -18 35 C-18.4021875 36.3921875 -18.4021875 36.3921875 -18.8125 37.8125 C-19.91148371 40.76240366 -20.62418561 42.05615186 -23 44 C-23 42.68 -23 41.36 -23 40 C-22.34 40 -21.68 40 -21 40 C-21 38.68 -21 37.36 -21 36 C-20.34 36 -19.68 36 -19 36 C-18.34 34.02 -17.68 32.04 -17 30 C-16.34 30 -15.68 30 -15 30 C-15 28.35 -15 26.7 -15 25 C-14.34 25 -13.68 25 -13 25 C-13 24.01 -13 23.02 -13 22 C-12.34 22 -11.68 22 -11 22 C-11 21.01 -11 20.02 -11 19 C-10.34 19 -9.68 19 -9 19 C-9.04125 18.071875 -9.0825 17.14375 -9.125 16.1875 C-9 13 -9 13 -7 10 C-6.34 10 -5.68 10 -5 10 C-5 9.01 -5 8.02 -5 7 C-4.34 7 -3.68 7 -3 7 C-2.690625 6.21625 -2.38125 5.4325 -2.0625 4.625 C-1 2 -1 2 0 0 Z " fill="#4E1017" transform="translate(370,367)"/>
<path d="M0 0 C0.64453125 1.79296875 0.64453125 1.79296875 1 4 C0.07421875 5.67578125 0.07421875 5.67578125 -1.3125 7.3125 C-3.31632616 9.88727936 -4.0708701 11.24804535 -5 14.5 C-6.26287805 18.92007319 -8.09984607 21.44731143 -11 25 C-11.66 25 -12.32 25 -13 25 C-13.144375 25.598125 -13.28875 26.19625 -13.4375 26.8125 C-13.8872439 28.56150404 -14.42892341 30.28677023 -15 32 C-15.66 32 -16.32 32 -17 32 C-15.64652562 28.42708422 -14.05303138 25.14486081 -12.1875 21.8125 C-9.31086926 16.61053385 -6.61635698 11.33690517 -4 6 C-3.34 6 -2.68 6 -2 6 C-1.855625 5.195625 -1.71125 4.39125 -1.5625 3.5625 C-1 1 -1 1 0 0 Z " fill="#D40D10" transform="translate(234,360)"/>
<path d="M0 0 C0.33 0.66 0.66 1.32 1 2 C-0.1875 4.6171875 -0.1875 4.6171875 -2 7.875 C-2.31525635 8.44565186 -2.6305127 9.01630371 -2.95532227 9.60424805 C-6.20767231 15.45751185 -9.58558278 21.24011685 -13 27 C-14.2077558 23.37673261 -13.54311128 22.35853631 -12 19 C-11.34 19 -10.68 19 -10 19 C-10 17.35 -10 15.7 -10 14 C-9.34 14 -8.68 14 -8 14 C-8 13.01 -8 12.02 -8 11 C-7.34 11 -6.68 11 -6 11 C-6 10.01 -6 9.02 -6 8 C-5.34 8 -4.68 8 -4 8 C-4.12375 6.8553125 -4.12375 6.8553125 -4.25 5.6875 C-4 3 -4 3 -2 1.1875 C-1.34 0.795625 -0.68 0.40375 0 0 Z " fill="#500F16" transform="translate(341,421)"/>
<path d="M0 0 C2.33936818 2.12669835 3.80653848 4.06224856 5 7 C5 7.99 5 8.98 5 10 C18.2 10 31.4 10 45 10 C45 10.33 45 10.66 45 11 C39.19761976 11.07401964 33.39551278 11.12853989 27.59277344 11.16479492 C25.61778987 11.17990462 23.64283996 11.20039328 21.66796875 11.22631836 C18.83324894 11.26260619 15.99897174 11.27970416 13.1640625 11.29296875 C12.27756012 11.30845261 11.39105774 11.32393646 10.47769165 11.33988953 C9.65699188 11.34011612 8.83629211 11.34034271 7.99072266 11.34057617 C7.26680328 11.34723801 6.54288391 11.35389984 5.79702759 11.36076355 C4 11 4 11 2 8 C2 6.68 2 5.36 2 4 C1.34 4 0.68 4 0 4 C0 2.68 0 1.36 0 0 Z " fill="#2F131D" transform="translate(451,464)"/>
<path d="M0 0 C0.99 0.33 1.98 0.66 3 1 C3 1.99 3 2.98 3 4 C3.66 4 4.32 4 5 4 C5 5.65 5 7.3 5 9 C5.66 9 6.32 9 7 9 C7 9.99 7 10.98 7 12 C7.66 12 8.32 12 9 12 C9 13.32 9 14.64 9 16 C9.66 16 10.32 16 11 16 C11 17.32 11 18.64 11 20 C11.66 20 12.32 20 13 20 C12.67 21.32 12.34 22.64 12 24 C10.17575388 20.94435413 8.36774517 17.87940351 6.5625 14.8125 C6.04623047 13.94818359 5.52996094 13.08386719 4.99804688 12.19335938 C4.50498047 11.35224609 4.01191406 10.51113281 3.50390625 9.64453125 C3.04830322 8.87471924 2.5927002 8.10490723 2.12329102 7.31176758 C0.93647706 4.86926783 0.41567798 2.67398817 0 0 Z " fill="#441017" transform="translate(406,307)"/>
<path d="M0 0 C0.75 1.5625 0.75 1.5625 1 4 C-0.13084437 6.50286409 -1.52139516 8.67007722 -3 11 C-3.99 11 -4.98 11 -6 11 C-6.33 13.64 -6.66 16.28 -7 19 C-7.66 19 -8.32 19 -9 19 C-9 20.32 -9 21.64 -9 23 C-10.98 23.99 -10.98 23.99 -13 25 C-12.71382812 24.29488281 -12.42765625 23.58976562 -12.1328125 22.86328125 C-10.99523169 19.98794768 -9.92607644 17.09547814 -8.875 14.1875 C-8.52179688 13.21167969 -8.16859375 12.23585938 -7.8046875 11.23046875 C-7.53914062 10.49441406 -7.27359375 9.75835937 -7 9 C-6.01 9 -5.02 9 -4 9 C-3.71125 8.071875 -3.4225 7.14375 -3.125 6.1875 C-2 3 -2 3 0 0 Z " fill="#A60F12" transform="translate(208,407)"/>
<path d="M0 0 C0.33 1.32 0.66 2.64 1 4 C1.66 4 2.32 4 3 4 C2.375 6.375 2.375 6.375 1 9 C-0.99172182 9.69100553 -2.99161804 10.35902703 -5 11 C-5.91428339 12.90708843 -5.91428339 12.90708843 -6 15 C-6.33 15.99 -6.66 16.98 -7 18 C-7.66 18 -8.32 18 -9 18 C-7.58719553 14.25299685 -5.8806803 10.81213429 -3.9375 7.3125 C-1.91741708 3.68323434 -1.91741708 3.68323434 0 0 Z " fill="#3C121C" transform="translate(292,326)"/>
<path d="M0 0 C0.33 1.32 0.66 2.64 1 4 C0.34 4 -0.32 4 -1 4 C-1 5.32 -1 6.64 -1 8 C-1.66 8 -2.32 8 -3 8 C-3.144375 8.78375 -3.28875 9.5675 -3.4375 10.375 C-4 13 -4 13 -5 15 C-5.66 15 -6.32 15 -7 15 C-7 16.32 -7 17.64 -7 19 C-7.66 19 -8.32 19 -9 19 C-9 19.99 -9 20.98 -9 22 C-9.66 22 -10.32 22 -11 22 C-10.7452486 20.68428397 -10.47065859 19.37239624 -10.1875 18.0625 C-9.96126953 16.96615234 -9.96126953 16.96615234 -9.73046875 15.84765625 C-9.48941406 15.23792969 -9.24835938 14.62820313 -9 14 C-8.01 13.67 -7.02 13.34 -6 13 C-5.31526605 10.67190457 -4.65146849 8.33762223 -4 6 C-2.79782536 3.86486357 -1.45109864 1.98316814 0 0 Z " fill="#530F1A" transform="translate(348,482)"/>
<path d="M0 0 C1.65 0.33 3.3 0.66 5 1 C5 1.66 5 2.32 5 3 C5.66 3 6.32 3 7 3 C7.33 5.31 7.66 7.62 8 10 C7.34 9.67 6.68 9.34 6 9 C6 8.01 6 7.02 6 6 C5.34 6 4.68 6 4 6 C3.87625 5.360625 3.7525 4.72125 3.625 4.0625 C3.41875 3.381875 3.2125 2.70125 3 2 C2.34 1.67 1.68 1.34 1 1 C0.773125 1.639375 0.54625 2.27875 0.3125 2.9375 C-1.48565826 7.13320261 -3.73904021 11.03900556 -6 15 C-7.2077558 11.37673261 -6.54311128 10.35853631 -5 7 C-4.34 7 -3.68 7 -3 7 C-3 6.01 -3 5.02 -3 4 C-2.34 4 -1.68 4 -1 4 C-0.67 2.68 -0.34 1.36 0 0 Z " fill="#C40E12" transform="translate(332,250)"/>
<path d="M0 0 C0.66 0 1.32 0 2 0 C0.60668753 5.95324421 -1.88535757 10.75741484 -5 16 C-5.66 16 -6.32 16 -7 16 C-7.12375 16.78375 -7.2475 17.5675 -7.375 18.375 C-8 21 -8 21 -10 23 C-10 21.35 -10 19.7 -10 18 C-9.34 18 -8.68 18 -8 18 C-8 17.01 -8 16.02 -8 15 C-7.34 15 -6.68 15 -6 15 C-5.67 12.36 -5.34 9.72 -5 7 C-4.01 6.67 -3.02 6.34 -2 6 C-0.77479736 2.99152582 -0.77479736 2.99152582 0 0 Z " fill="#460E19" transform="translate(183,448)"/>
<path d="M0 0 C0.66 0.33 1.32 0.66 2 1 C-0.78713525 7.44622342 -3.81248753 13.74254723 -7 20 C-7.66 20 -8.32 20 -9 20 C-9.33 20.66 -9.66 21.32 -10 22 C-9.33333333 19.33333333 -8.66666667 16.66666667 -8 14 C-7.34 14 -6.68 14 -6 14 C-6 12.68 -6 11.36 -6 10 C-5.34 10 -4.68 10 -4 10 C-4 9.01 -4 8.02 -4 7 C-3.34 7 -2.68 7 -2 7 C-2 5.68 -2 4.36 -2 3 C-1.34 3 -0.68 3 0 3 C0 2.01 0 1.02 0 0 Z " fill="#CA0E11" transform="translate(383,414)"/>
<path d="M0 0 C0.66 0.33 1.32 0.66 2 1 C-1.48307384 8.10485416 -5.16968276 15.07647124 -9 22 C-9.33 22 -9.66 22 -10 22 C-10 20.35 -10 18.7 -10 17 C-9.34 17 -8.68 17 -8 17 C-8 16.01 -8 15.02 -8 14 C-7.34 14 -6.68 14 -6 14 C-5.67 12.02 -5.34 10.04 -5 8 C-4.01 7.67 -3.02 7.34 -2 7 C-2 5.68 -2 4.36 -2 3 C-1.34 3 -0.68 3 0 3 C0 2.01 0 1.02 0 0 Z " fill="#D00D12" transform="translate(247,404)"/>
<path d="M0 0 C1.9375 0.625 1.9375 0.625 4 2 C4.75 5.125 4.75 5.125 5 8 C5.66 8 6.32 8 7 8 C7 8.99 7 9.98 7 11 C7.66 11 8.32 11 9 11 C9 12.32 9 13.64 9 15 C9.66 15 10.32 15 11 15 C11.66 17.64 12.32 20.28 13 23 C10.70385844 20.88099171 9.22117027 18.85646836 7.7734375 16.09375 C7.3815625 15.34996094 6.9896875 14.60617187 6.5859375 13.83984375 C6.18632812 13.06769531 5.78671875 12.29554688 5.375 11.5 C4.96765625 10.72785156 4.5603125 9.95570313 4.140625 9.16015625 C2.5473552 6.1160613 1.08897536 3.26692607 0 0 Z " fill="#450F19" transform="translate(372,246)"/>
<path d="M0 0 C0.33 1.32 0.66 2.64 1 4 C0.34 4 -0.32 4 -1 4 C-1 5.32 -1 6.64 -1 8 C-1.66 8 -2.32 8 -3 8 C-3.185625 9.6396875 -3.185625 9.6396875 -3.375 11.3125 C-4 15 -4 15 -6 18 C-6.99 18 -7.98 18 -9 18 C-7.65072455 13.46152802 -5.80840652 9.68067754 -3.375 5.625 C-2.74335938 4.56539063 -2.11171875 3.50578125 -1.4609375 2.4140625 C-0.73777344 1.21910156 -0.73777344 1.21910156 0 0 Z " fill="#3F1119" transform="translate(234,432)"/>
<path d="M0 0 C1.09658936 3.28976808 0.79953138 4.71303767 0 8 C-0.66 8 -1.32 8 -2 8 C-2 8.99 -2 9.98 -2 11 C-2.66 11 -3.32 11 -4 11 C-4 11.99 -4 12.98 -4 14 C-4.66 14 -5.32 14 -6 14 C-6.103125 14.78375 -6.20625 15.5675 -6.3125 16.375 C-7 19 -7 19 -10 21 C-8.70955066 15.96724759 -6.31254606 12.39198712 -3.3984375 8.19140625 C-1.73120734 5.57879138 -0.76826982 2.99625229 0 0 Z " fill="#431017" transform="translate(303,305)"/>
<path d="M0 0 C0.33 0.66 0.66 1.32 1 2 C-0.24282012 4.45038293 -1.52882339 6.773325 -2.9375 9.125 C-3.32357422 9.78371094 -3.70964844 10.44242187 -4.10742188 11.12109375 C-5.06446578 12.751613 -6.03132815 14.37636184 -7 16 C-8.35439668 13.29120665 -8.06501451 10.99066732 -8 8 C-7.01 8.33 -6.02 8.66 -5 9 C-4.67 7.02 -4.34 5.04 -4 3 C-3.01 3 -2.02 3 -1 3 C-0.67 2.01 -0.34 1.02 0 0 Z " fill="#401118" transform="translate(272,288)"/>
<path d="M0 0 C0.33 0.66 0.66 1.32 1 2 C-0.328125 4.93359375 -0.328125 4.93359375 -2.25 8.4375 C-2.87390625 9.59121094 -3.4978125 10.74492187 -4.140625 11.93359375 C-5.63012529 14.39001755 -6.84978101 16.14842254 -9 18 C-8.33333333 15.33333333 -7.66666667 12.66666667 -7 10 C-6.34 10 -5.68 10 -5 10 C-5 9.01 -5 8.02 -5 7 C-4.34 7 -3.68 7 -3 7 C-3 5.68 -3 4.36 -3 3 C-2.34 3 -1.68 3 -1 3 C-0.67 2.01 -0.34 1.02 0 0 Z " fill="#C51012" transform="translate(282,342)"/>
<path d="M0 0 C0.4125 0.556875 0.825 1.11375 1.25 1.6875 C2.99823011 4.06333739 2.99823011 4.06333739 5.125 6.375 C7.23301888 9.32622643 7.66761364 11.42684662 8 15 C7.34 15 6.68 15 6 15 C4.5393715 12.35261084 4 11.10551666 4 8 C2.35 7.67 0.7 7.34 -1 7 C-0.67 4.69 -0.34 2.38 0 0 Z " fill="#C40E10" transform="translate(481,446)"/>
<path d="M0 0 C0.6875 1.8125 0.6875 1.8125 1 4 C0.3503125 4.63421875 0.3503125 4.63421875 -0.3125 5.28125 C-2.5022291 7.51152964 -3.44356321 9.82980737 -4.6875 12.6875 C-5.34298828 14.17830078 -5.34298828 14.17830078 -6.01171875 15.69921875 C-6.33785156 16.45847656 -6.66398437 17.21773438 -7 18 C-7.66 18 -8.32 18 -9 18 C-7.51800377 14.13392289 -5.79247064 10.45082594 -3.9375 6.75 C-3.41027344 5.69296875 -2.88304687 4.6359375 -2.33984375 3.546875 C-1 1 -1 1 0 0 Z " fill="#4A0E19" transform="translate(368,446)"/>
<path d="M0 0 C2 1.8125 2 1.8125 4 4 C4 4.99 4 5.98 4 7 C4.66 7 5.32 7 6 7 C6.66 8.98 7.32 10.96 8 13 C8.66 13 9.32 13 10 13 C10 14.65 10 16.3 10 18 C9.5875 17.443125 9.175 16.88625 8.75 16.3125 C7.02804317 13.96280162 7.02804317 13.96280162 5 11.8125 C2.37835333 8.12580938 1.24114466 4.31579848 0 0 Z " fill="#4F0F13" transform="translate(393,284)"/>
<path d="M0 0 C2.31 1.98 4.62 3.96 7 6 C6.01 6.495 6.01 6.495 5 7 C5 7.99 5 8.98 5 10 C3.0625 9.5 3.0625 9.5 1 8 C0.31209578 5.30341548 0.18053536 2.7982981 0 0 Z " fill="#21262E" transform="translate(1074,285)"/>
<path d="M0 0 C3.1913079 1.59565395 4.11784709 4.84661121 5.625 7.9375 C5.94984375 8.58396484 6.2746875 9.23042969 6.609375 9.89648438 C9 14.73297991 9 14.73297991 9 17 C8.34 17 7.68 17 7 17 C6.32591692 15.73308493 5.66099503 14.46129251 5 13.1875 C4.443125 12.12595703 4.443125 12.12595703 3.875 11.04296875 C3 9 3 9 3 6 C2.34 6 1.68 6 1 6 C0.67 4.02 0.34 2.04 0 0 Z " fill="#580F15" transform="translate(396,363)"/>
<path d="M0 0 C0.66 0 1.32 0 2 0 C1.67 1.65 1.34 3.3 1 5 C0.34 5 -0.32 5 -1 5 C-1.103125 5.53625 -1.20625 6.0725 -1.3125 6.625 C-2.18092697 9.62502044 -3.55620296 12.2379535 -5 15 C-6.00692101 11.97923697 -6.39261106 10.1408885 -6 7 C-3.95575462 5.02389614 -2.8823175 4 0 4 C0 2.68 0 1.36 0 0 Z " fill="#401217" transform="translate(231,361)"/>
<path d="M0 0 C0.99 0 1.98 0 3 0 C3.36923077 4.55384615 3.36923077 4.55384615 1.5 6.8125 C1.005 7.204375 0.51 7.59625 0 8 C-1.32 7.34 -2.64 6.68 -4 6 C-2.1875 3 -2.1875 3 0 0 Z " fill="#24282F" transform="translate(979,303)"/>
<path d="M0 0 C0.6875 1.8125 0.6875 1.8125 1 4 C0.02351983 5.02297922 -0.98131338 6.01904252 -2 7 C-2.72693904 8.97888961 -3.39816251 10.97954558 -4 13 C-4.33 13.66 -4.66 14.32 -5 15 C-5.66 15 -6.32 15 -7 15 C-5.34292168 9.35086937 -3.52237988 4.73699363 0 0 Z " fill="#4D0F17" transform="translate(252,399)"/>
<path d="M0 0 C2 3.75 2 3.75 2 6 C0.34928604 7.02611949 -1.31970006 8.02308143 -3 9 C-4.75149165 10.58245275 -4.75149165 10.58245275 -6 12 C-4.43358249 7.69235185 -2.31663844 3.93828536 0 0 Z " fill="#431119" transform="translate(212,472)"/>
<path d="M0 0 C1.24546405 2.49092811 0.7767578 3.41080733 0 6 C-0.66 6 -1.32 6 -2 6 C-2 7.32 -2 8.64 -2 10 C-2.66 10 -3.32 10 -4 10 C-4.103125 10.61875 -4.20625 11.2375 -4.3125 11.875 C-5 14 -5 14 -8 16 C-7.71125 15.43410156 -7.4225 14.86820312 -7.125 14.28515625 C-5.64321169 11.27527375 -4.32944871 8.20063705 -3 5.12109375 C-2 3 -2 3 0 0 Z " fill="#4C0F15" transform="translate(387,411)"/>
<path d="M0 0 C0.99 0.33 1.98 0.66 3 1 C5.06761395 5.21793246 6.57967348 9.52050867 8 14 C7.34 13.67 6.68 13.34 6 13 C6 12.34 6 11.68 6 11 C5.34 11 4.68 11 4 11 C3.71125 10.21625 3.4225 9.4325 3.125 8.625 C2.15087746 5.90328368 2.15087746 5.90328368 0 4 C0 2.68 0 1.36 0 0 Z " fill="#C00D13" transform="translate(420,405)"/>
<path d="M0 0 C3.50297874 4.02193856 9 10.39433144 9 16 C8.01 16 7.02 16 6 16 C5.34 13.03 4.68 10.06 4 7 C3.34 7 2.68 7 2 7 C2 6.01 2 5.02 2 4 C1.34 4 0.68 4 0 4 C0 2.68 0 1.36 0 0 Z " fill="#500E15" transform="translate(365,307)"/>
<path d="M0 0 C0.84119973 2.39957614 1.11193544 3.64922558 0.328125 6.10546875 C-0.02765625 6.79253906 -0.3834375 7.47960937 -0.75 8.1875 C-1.26820313 9.22970703 -1.26820313 9.22970703 -1.796875 10.29296875 C-3 12 -3 12 -6 13 C-4.75696561 7.82069003 -3.14512215 4.29833361 0 0 Z " fill="#C60D14" transform="translate(304,232)"/>
<path d="M0 0 C0.99 0.33 1.98 0.66 3 1 C3.33 2.98 3.66 4.96 4 7 C4.66 7 5.32 7 6 7 C8.125 11.625 8.125 11.625 7 15 C5.82823482 12.87767021 4.66245215 10.75242209 3.5 8.625 C3.16613281 8.02171875 2.83226562 7.4184375 2.48828125 6.796875 C0 2.2265625 0 2.2265625 0 0 Z " fill="#3F101A" transform="translate(343,192)"/>
<path d="M0 0 C0.33 1.32 0.66 2.64 1 4 C0.34 4 -0.32 4 -1 4 C-1 5.32 -1 6.64 -1 8 C-1.66 8 -2.32 8 -3 8 C-3 9.65 -3 11.3 -3 13 C-4.32 13.33 -5.64 13.66 -7 14 C-5.23570801 9.02790438 -2.6060834 4.56561939 0 0 Z " fill="#C00E13" transform="translate(328,188)"/>
<path d="M0 0 C0.71484375 1.640625 0.71484375 1.640625 1 4 C-0.43359375 6.796875 -0.43359375 6.796875 -2.4375 9.75 C-3.09621094 10.73484375 -3.75492188 11.7196875 -4.43359375 12.734375 C-4.95050781 13.48203125 -5.46742188 14.2296875 -6 15 C-6.33 14.34 -6.66 13.68 -7 13 C-5.00719364 8.48996454 -2.47168978 4.2615341 0 0 Z " fill="#C70F13" transform="translate(190,440)"/>
<path d="M0 0 C0.99 0.33 1.98 0.66 3 1 C4.6875 4.5625 4.6875 4.5625 6 8 C4.35 8 2.7 8 1 8 C0.40267181 5.23735711 0 2.83967231 0 0 Z " fill="#272B33" transform="translate(1377,428)"/>
<path d="M0 0 C1.32 1.65 2.64 3.3 4 5 C3.67 5.66 3.34 6.32 3 7 C2.01 6.67 1.02 6.34 0 6 C-1.32 7.32 -2.64 8.64 -4 10 C-4 8.68 -4 7.36 -4 6 C-3.34 6 -2.68 6 -2 6 C-1.855625 5.195625 -1.71125 4.39125 -1.5625 3.5625 C-1 1 -1 1 0 0 Z " fill="#CD0E13" transform="translate(334,178)"/>
<path d="M0 0 C0.625 1.8125 0.625 1.8125 1 4 C0.01 5.485 0.01 5.485 -1 7 C-1.66 7 -2.32 7 -3 7 C-2.938125 8.1446875 -2.938125 8.1446875 -2.875 9.3125 C-3 12 -3 12 -5 15 C-5.66 14.67 -6.32 14.34 -7 14 C-6.35474023 12.5414128 -5.7087728 11.08313863 -5.0625 9.625 C-4.52302734 8.40683594 -4.52302734 8.40683594 -3.97265625 7.1640625 C-3.3430097 5.76316215 -2.68687358 4.37374716 -2 3 C-1.34 3 -0.68 3 0 3 C0 2.01 0 1.02 0 0 Z " fill="#431018" transform="translate(376,431)"/>
<path d="M0 0 C7 8.20689655 7 8.20689655 7 13 C6.34 13 5.68 13 5 13 C4.15615325 11.58957044 3.32530504 10.17135868 2.5 8.75 C2.0359375 7.96109375 1.571875 7.1721875 1.09375 6.359375 C0 4 0 4 0 0 Z " fill="#C60E13" transform="translate(379,379)"/>
<path d="M0 0 C0.33 0.66 0.66 1.32 1 2 C-0.1796875 4.3828125 -0.1796875 4.3828125 -1.875 7.125 C-2.42929687 8.03507813 -2.98359375 8.94515625 -3.5546875 9.8828125 C-4.03164063 10.58148438 -4.50859375 11.28015625 -5 12 C-5.33 12 -5.66 12 -6 12 C-6 10.35 -6 8.7 -6 7 C-5.34 7 -4.68 7 -4 7 C-3.896875 6.401875 -3.79375 5.80375 -3.6875 5.1875 C-2.91123545 2.71756736 -1.92911079 1.67748765 0 0 Z " fill="#481015" transform="translate(313,214)"/>
<path d="M0 0 C0.33 0.66 0.66 1.32 1 2 C0.00390625 4.3828125 0.00390625 4.3828125 -1.4375 7.125 C-1.91058594 8.03507813 -2.38367188 8.94515625 -2.87109375 9.8828125 C-3.24363281 10.58148438 -3.61617188 11.28015625 -4 12 C-5.29227216 7.81857651 -4.54613006 5.09724467 -3 1 C-2.01 0.67 -1.02 0.34 0 0 Z " fill="#351317" transform="translate(320,200)"/>
<path d="M0 0 C2.83848733 3.20474376 4.88445309 5.60921741 5 10 C4.01 10.99 3.02 11.98 2 13 C2 10.03 2 7.06 2 4 C1.34 4 0.68 4 0 4 C0 2.68 0 1.36 0 0 Z " fill="#C90E14" transform="translate(387,394)"/>
<path d="M0 0 C0.625 1.8125 0.625 1.8125 1 4 C0.01 5.485 0.01 5.485 -1 7 C-1.66 7 -2.32 7 -3 7 C-3.144375 7.598125 -3.28875 8.19625 -3.4375 8.8125 C-3.8872439 10.56150404 -4.42892341 12.28677023 -5 14 C-5.66 14 -6.32 14 -7 14 C-5.23570801 9.02790438 -2.6060834 4.56561939 0 0 Z " fill="#C10F12" transform="translate(224,378)"/>
<path d="M0 0 C3.03061766 2.02041177 3.72239767 2.75685563 5 6 C5 6.99 5 7.98 5 9 C5.66 9 6.32 9 7 9 C7.33 10.98 7.66 12.96 8 15 C3.36204972 11.001767 1.19016179 5.95080896 0 0 Z " fill="#490E15" transform="translate(446,380)"/>
<path d="M0 0 C0.33 0.66 0.66 1.32 1 2 C-0.21484375 4.6015625 -0.21484375 4.6015625 -1.9375 7.625 C-2.78634766 9.12933594 -2.78634766 9.12933594 -3.65234375 10.6640625 C-4.09707031 11.43492187 -4.54179687 12.20578125 -5 13 C-5.33 13 -5.66 13 -6 13 C-6 11.02 -6 9.04 -6 7 C-5.01 6.67 -4.02 6.34 -3 6 C-1.84478498 3.52869082 -1.84478498 3.52869082 -1 1 C-0.67 0.67 -0.34 0.34 0 0 Z " fill="#470E16" transform="translate(242,343)"/>
<path d="M0 0 C0.66 0 1.32 0 2 0 C0.77472971 4.05281712 -0.69880494 7.44360764 -3 11 C-4.25541557 7.23375329 -3.37061958 5.62811066 -2 2 C-1.34 2 -0.68 2 0 2 C0 1.34 0 0.68 0 0 Z " fill="#431117" transform="translate(293,248)"/>
<path d="M0 0 C1.32 1.65 2.64 3.3 4 5 C4.99 4.67 5.98 4.34 7 4 C6.34 5.98 5.68 7.96 5 10 C4.67 9.34 4.34 8.68 4 8 C3.01 7.67 2.02 7.34 1 7 C0.67 4.69 0.34 2.38 0 0 Z " fill="#4A111A" transform="translate(476,434)"/>
<path d="M0 0 C3.05009472 2.03339648 3.6730604 2.84346689 5.1875 6 C5.53167969 6.70125 5.87585938 7.4025 6.23046875 8.125 C7 10 7 10 7 12 C6.01 12 5.02 12 4 12 C3.34 9.36 2.68 6.72 2 4 C1.34 4 0.68 4 0 4 C0 2.68 0 1.36 0 0 Z " fill="#500F16" transform="translate(389,351)"/>
<path d="M0 0 C2.97246802 2.54782974 4.41535288 5.45340883 6 9 C6 9.66 6 10.32 6 11 C5.34 11 4.68 11 4 11 C4 10.34 4 9.68 4 9 C3.34 9 2.68 9 2 9 C0.50178941 5.62902617 0 3.79557881 0 0 Z " fill="#490F16" transform="translate(359,296)"/>
<path d="M0 0 C2.97246802 2.54782974 4.41535288 5.45340883 6 9 C6 9.66 6 10.32 6 11 C4.68 10.67 3.36 10.34 2 10 C2 8.02 2 6.04 2 4 C1.34 4 0.68 4 0 4 C0 2.68 0 1.36 0 0 Z " fill="#D50D10" transform="translate(347,202)"/>
<path d="M0 0 C0.33 1.32 0.66 2.64 1 4 C0.01 4.66 -0.98 5.32 -2 6 C-2.72965366 8.56282742 -2.72965366 8.56282742 -3 11 C-3.66 11 -4.32 11 -5 11 C-5.33 11.66 -5.66 12.32 -6 13 C-6 11.68 -6 10.36 -6 9 C-5.34 9 -4.68 9 -4 9 C-3.896875 8.2575 -3.79375 7.515 -3.6875 6.75 C-2.95746496 3.82985982 -1.93210602 2.26812446 0 0 Z " fill="#D00D0F" transform="translate(360,389)"/>
<path d="M0 0 C2.80849619 1.4042481 2.88266612 3.10807701 4 6 C4.556875 6.886875 5.11375 7.77375 5.6875 8.6875 C6.120625 9.450625 6.55375 10.21375 7 11 C6.67 11.66 6.34 12.32 6 13 C5.67 12.01 5.34 11.02 5 10 C4.34 10 3.68 10 3 10 C3 9.01 3 8.02 3 7 C2.34 7 1.68 7 1 7 C0.67 4.69 0.34 2.38 0 0 Z " fill="#470F17" transform="translate(348,276)"/>
<path d="M0 0 C0.99 0.33 1.98 0.66 3 1 C3 2.32 3 3.64 3 5 C3.66 5 4.32 5 5 5 C5.33 6.98 5.66 8.96 6 11 C5.34 10.67 4.68 10.34 4 10 C4 9.34 4 8.68 4 8 C3.34 8 2.68 8 2 8 C1.34 5.36 0.68 2.72 0 0 Z " fill="#510F14" transform="translate(384,386)"/>
<path d="M0 0 C1.35439668 2.70879335 1.06501451 5.00933268 1 8 C-0.65 8.33 -2.3 8.66 -4 9 C-2.94124926 5.59687262 -1.99097846 2.98646769 0 0 Z " fill="#40111B" transform="translate(269,368)"/>
<path d="M0 0 C2.78752362 1.39376181 3.30431115 3.17508558 4.6875 5.9375 C5.14511719 6.83339844 5.60273438 7.72929687 6.07421875 8.65234375 C6.37972656 9.42707031 6.68523437 10.20179688 7 11 C6.67 11.66 6.34 12.32 6 13 C2.57068046 9.2440786 1.43570917 4.76533255 0 0 Z " fill="#B71015" transform="translate(436,364)"/>
<path d="M0 0 C1.24546405 2.49092811 0.7767578 3.41080733 0 6 C-0.66 6 -1.32 6 -2 6 C-2 7.32 -2 8.64 -2 10 C-2.66 10 -3.32 10 -4 10 C-4.33 10.66 -4.66 11.32 -5 12 C-5 10.68 -5 9.36 -5 8 C-4.34 8 -3.68 8 -3 8 C-2.87625 7.236875 -2.7525 6.47375 -2.625 5.6875 C-2 3 -2 3 0 0 Z " fill="#571016" transform="translate(327,262)"/>
<path d="M0 0 C0.66 0.33 1.32 0.66 2 1 C0.35 4.3 -1.3 7.6 -3 11 C-3.33 11 -3.66 11 -4 11 C-4 9.35 -4 7.7 -4 6 C-3.34 6 -2.68 6 -2 6 C-2 5.01 -2 4.02 -2 3 C-1.34 3 -0.68 3 0 3 C0 2.01 0 1.02 0 0 Z " fill="#401017" transform="translate(299,237)"/>
<path d="M0 0 C2.97069541 2.54631035 4.4775751 5.42230149 6 9 C5.67 9.66 5.34 10.32 5 11 C4.67 9.68 4.34 8.36 4 7 C3.34 7 2.68 7 2 7 C0 4 0 4 0 0 Z " fill="#4E0E13" transform="translate(445,453)"/>
<path d="M0 0 C0.66 0 1.32 0 2 0 C0.74194623 4.50802601 -0.90407165 7.4912812 -4 11 C-4 9.35 -4 7.7 -4 6 C-2.68 5.34 -1.36 4.68 0 4 C0 2.68 0 1.36 0 0 Z " fill="#C40E12" transform="translate(369,440)"/>
<path d="M0 0 C0.75 1.5625 0.75 1.5625 1 4 C-0.13084437 6.50286409 -1.52139516 8.67007722 -3 11 C-3.66 11 -4.32 11 -5 11 C-3.55049545 7.2089881 -1.84827434 3.6125362 0 0 Z " fill="#C71014" transform="translate(208,407)"/>
<path d="M0 0 C5.57142857 5.14285714 5.57142857 5.14285714 6 9 C5.34 9 4.68 9 4 9 C0 2.25 0 2.25 0 0 Z " fill="#CD0E10" transform="translate(396,293)"/>
<path d="M0 0 C0.33 0.99 0.66 1.98 1 3 C1.66 3 2.32 3 3 3 C4.06775224 4.96466413 5.06553465 6.96855359 6 9 C5.67 9.66 5.34 10.32 5 11 C4.15504811 9.92570402 3.32445142 8.84010798 2.5 7.75 C2.0359375 7.14671875 1.571875 6.5434375 1.09375 5.921875 C0 4 0 4 0 0 Z " fill="#C70E12" transform="translate(387,275)"/>
<path d="M0 0 C0.99 0 1.98 0 3 0 C3.69699552 1.45381897 4.38233866 2.91322953 5.0625 4.375 C5.63677734 5.59316406 5.63677734 5.59316406 6.22265625 6.8359375 C6.47917969 7.55007813 6.73570312 8.26421875 7 9 C6.67 9.66 6.34 10.32 6 11 C5.18357746 9.73168307 4.37200895 8.46024069 3.5625 7.1875 C3.11003906 6.47980469 2.65757812 5.77210938 2.19140625 5.04296875 C1 3 1 3 0 0 Z " fill="#BE0F15" transform="translate(350,279)"/>
<path d="M0 0 C3.09592835 3.5087188 4.74194623 6.49197399 6 11 C2.99229937 8.99486625 1.24691165 7.42900705 0 4 C0 2.68 0 1.36 0 0 Z " fill="#CC0E12" transform="translate(359,224)"/>
<path d="M0 0 C0.33 0.66 0.66 1.32 1 2 C0.00390625 4.1640625 0.00390625 4.1640625 -1.4375 6.625 C-1.91058594 7.44226563 -2.38367188 8.25953125 -2.87109375 9.1015625 C-3.24363281 9.72804688 -3.61617187 10.35453125 -4 11 C-4.33 11 -4.66 11 -5 11 C-5.39169887 8.33644766 -5.40564529 6.60775627 -3.88671875 4.33203125 C-2.63610683 2.8489112 -1.32135486 1.42045648 0 0 Z " fill="#D40F12" transform="translate(220,455)"/>
<path d="M0 0 C2.25245881 2.68841859 3.88213958 4.64641875 5 8 C3.68 8 2.36 8 1 8 C0.67 5.36 0.34 2.72 0 0 Z " fill="#471119" transform="translate(409,387)"/>
<path d="M0 0 C0.33 1.32 0.66 2.64 1 4 C0.34 4 -0.32 4 -1 4 C-1.12375 4.804375 -1.2475 5.60875 -1.375 6.4375 C-1.58125 7.283125 -1.7875 8.12875 -2 9 C-2.99 9.495 -2.99 9.495 -4 10 C-3.43454163 6.04179141 -2.19097652 3.3340947 0 0 Z " fill="#CE0E13" transform="translate(268,298)"/>
<path d="M0 0 C4 4.75 4 4.75 4 7 C3.01 7 2.02 7 1 7 C1 6.34 1 5.68 1 5 C0.01 4.67 -0.98 4.34 -2 4 C-1.34 2.68 -0.68 1.36 0 0 Z " fill="#25292F" transform="translate(389,231)"/>
<path d="M0 0 C3.0916909 2.52956528 3.90931332 5.22454612 5 9 C4.01 8.67 3.02 8.34 2 8 C2 6.68 2 5.36 2 4 C1.34 4 0.68 4 0 4 C0 2.68 0 1.36 0 0 Z " fill="#470E17" transform="translate(451,464)"/>
<path d="M0 0 C0.33 0.66 0.66 1.32 1 2 C-0.3125 4.625 -0.3125 4.625 -2 7 C-2.66 7 -3.32 7 -4 7 C-3.6875 4.625 -3.6875 4.625 -3 2 C-2.01 1.34 -1.02 0.68 0 0 Z " fill="#43111A" transform="translate(341,421)"/>
<path d="M0 0 C0.99 0.33 1.98 0.66 3 1 C3 2.32 3 3.64 3 5 C3.66 5 4.32 5 5 5 C4.67 6.32 4.34 7.64 4 9 C2.10134397 6.02819057 0.64544429 3.48539917 0 0 Z " fill="#500F15" transform="translate(454,395)"/>
<path d="M0 0 C1.67542976 0.28604898 3.34385343 0.61781233 5 1 C3.68 2.32 2.36 3.64 1 5 C0.34 3.68 -0.32 2.36 -1 1 C-0.67 0.67 -0.34 0.34 0 0 Z " fill="#20262C" transform="translate(705,379)"/>
<path d="M0 0 C0.66 0 1.32 0 2 0 C0.14285714 7.57142857 0.14285714 7.57142857 -3 10 C-2.67 8.02 -2.34 6.04 -2 4 C-1.34 4 -0.68 4 0 4 C0 2.68 0 1.36 0 0 Z " fill="#C00F14" transform="translate(301,305)"/>
<path d="M0 0 C0.33 1.32 0.66 2.64 1 4 C0.34 4 -0.32 4 -1 4 C-1.12375 4.804375 -1.2475 5.60875 -1.375 6.4375 C-1.58125 7.283125 -1.7875 8.12875 -2 9 C-2.99 9.495 -2.99 9.495 -4 10 C-3.43454163 6.04179141 -2.19097652 3.3340947 0 0 Z " fill="#C40D13" transform="translate(282,272)"/>
<path d="M0 0 C0 1.98 0 3.96 0 6 C-1.65 4.35 -3.3 2.7 -5 1 C-3 0 -3 0 0 0 Z " fill="#31343A" transform="translate(1103,268)"/>
<path d="M0 0 C4.42857143 5.14285714 4.42857143 5.14285714 5 9 C4.34 9 3.68 9 3 9 C0.56839395 5.63316085 0 4.26649636 0 0 Z " fill="#B51014" transform="translate(338,185)"/>
<path d="M0 0 C2 1 2 1 2.8515625 3.06640625 C3.10679687 3.89011719 3.36203125 4.71382813 3.625 5.5625 C3.88539063 6.38878906 4.14578125 7.21507812 4.4140625 8.06640625 C4.60742188 8.70449219 4.80078125 9.34257812 5 10 C4.34 9.67 3.68 9.34 3 9 C3 8.34 3 7.68 3 7 C2.34 7 1.68 7 1 7 C0.67 4.69 0.34 2.38 0 0 Z " fill="#520F15" transform="translate(436,436)"/>
<path d="M0 0 C2.475 0.495 2.475 0.495 5 1 C5.33 2.32 5.66 3.64 6 5 C5.67 4.34 5.34 3.68 5 3 C3.35 3 1.7 3 0 3 C0 2.01 0 1.02 0 0 Z " fill="#251824" transform="translate(370,364)"/>
<path d="M0 0 C2.01920337 1.30406884 4.01924973 2.63823419 6 4 C6 4.33 6 4.66 6 5 C3.69 4.67 1.38 4.34 -1 4 C-0.67 2.68 -0.34 1.36 0 0 Z " fill="#33363D" transform="translate(699,320)"/>
<path d="M0 0 C1 2 1 2 0.25 4.5 C-1 7 -1 7 -4 9 C-2.94124926 5.59687262 -1.99097846 2.98646769 0 0 Z " fill="#520E15" transform="translate(297,317)"/>
<path d="M0 0 C1 2 1 2 0.25 4.5625 C-1 7 -1 7 -4 8 C-2.87548273 5.0280615 -1.77706209 2.66559313 0 0 Z " fill="#421019" transform="translate(321,274)"/>
</svg>
